<?xml version="1.0" encoding="utf-8"?>
<!-- Generator: Adobe Illustrator 24.0.0, SVG Export Plug-In . SVG Version: 6.00 Build 0)  -->
<svg version="1.1" id="Layer_1" xmlns="http://www.w3.org/2000/svg" xmlns:xlink="http://www.w3.org/1999/xlink" x="0px" y="0px"
	 viewBox="0 0 300 300" style="enable-background:new 0 0 300 300;" xml:space="preserve">
<style type="text/css">
	.st0{fill:#1FC4C4;}
	.st1{fill:#004467;}
</style>
<path class="st0" d="M220,74c-21.7,0-41.4,9.8-55.7,25.6c0,0.1,0.1,0.1,0.1,0.1c6.7,9.9,15.6,25.4,15.6,45.9
	c0,7.2,1.5,14.8,4.7,21.6c-0.1-1.6-0.2-3.2-0.2-4.8c0-28.1,16.7-41.7,37.4-41.7c20.6,0,37.4,14.6,37.4,41.7
	c0,28.6-16.7,41.7-37.4,41.7c-2.7,0-5.3-0.2-7.9-0.7c-30.7-4.2-46.8-32-46.8-57.8c0-14.8-5.5-26.4-11.1-35.2
	c-10.1,16.2-15.8,38.4-15.8,73.9c0,29.3,0,58.1,0,58.1v40.2c0,3.5,2.9,6.4,6.4,6.4h33.1c3.5,0,6.4-2.9,6.4-6.4V261c0,0,0,0,0,0
	v-18.7c10.3,5.4,21.7,8.4,33.8,8.4c48.5,0,79.2-39.6,79.2-88.4S263.8,74,220,74z"/>
<path class="st1" d="M156,110.3c-1.1-1.7-2.7-3.9-4.2-6C143,91.6,133.6,91,116,61.8c-12.7-21.1-10.4-31.9-9.8-40.9
	c0-0.1,0-0.2,0-0.2c-0.5-5.9-5.5-10.6-11.5-10.6c-2.2,0-4.2,0.6-6,1.7c0,0,0,0-0.1,0.1c-5.2,3.8-10.1,9.4-12.4,15.4
	c-5.4,14-2.8,38.5,5.4,55.7c8.2,17.2,5.9,25.8,5.9,25.8s-34.2,3.7-56.1,8.3c-9.3,1.9-16.4,4.2-21.5,6.7c-5.7,2.8-9,8.8-8.4,15
	c0.4,4.2,0.9,8.6,1.7,13c0.3,1.9,1.4,3.7,2.9,4.9l0,0c10.8,6.6,32.9,17,64.6,17c1,0,1.9,0.7,2,1.7c0.1,1.1-0.8,2.1-1.9,2.1
	c-22.4,0-40-4.9-52.5-10.2c-1.2-0.4-2.3-0.9-3.4-1.3c-3.4-1.4-7.2,1-7.3,4.7c0,0.5,0,1.1,0.1,1.6c1.8,6.8,4.1,13.8,6.7,20.9
	c0.8,2.1,2.1,3.1,3.7,4c12.2,5.4,30,10.8,52.6,10.8c1,0,1.9,0.7,2,1.7c0.1,1.1-0.8,2.1-1.9,2.1c-15.1,0-28.1-2.3-38.8-5.4
	c-1.7-0.4-3.5-0.9-5.2-1.5c-4.7-1.4-6.2-1-6.6,1.2c0,0.2,0,0.4,0,0.7c0.1,0.6,0.2,1.1,0.5,1.7c2.8,6.2,5.8,12,9,17.4
	c0.2,0.2,0.4,0.3,0.6,0.5c0.5,0.3,1.1,0.6,1.9,0.9c10.5,3.2,23.4,5.5,38.4,5.5c1,0,1.9,0.7,2,1.7c0.1,1.1-0.8,2.1-1.9,2.1
	c-13,0-24.3-1.7-34-4.1c-1.3-0.3-2.2,1.1-1.5,2.1c3,4.5,6.2,8.8,9.5,12.8c1.2,1.5,2.7,2.6,4.4,3.5c5.6,2.7,13.1,4.8,21.4,4.6
	c3.8-0.1,7.6-0.1,11.3-0.3c0,0,0,0,0,0c0.2,0,0.4,0,0.6,0c0,0,0,0,0,0c6.9-0.4,24.3-2.7,25-9.6c0.8-7.5,3-13.1,6.4-16.1
	c6.7-5.9,3-17.5-2.3-23.6c-0.7-0.8-0.6-1.9,0.1-2.6c2.6-2.5,7.3-9.3,6.6-17.1c-0.6-6.5-4.8-12.5-12.6-17.6c-0.8-0.5-1.1-1.5-0.7-2.4
	c2.9-6.2,3.2-11.4,1.1-15.9c-3.4-7.1-13.4-12.8-29.7-16.8c-17.9-4.5-34.3-2.9-34.5-2.9c-1,0.1-2-0.7-2.1-1.7c-0.1-1.1,0.7-2,1.7-2.1
	c0.7-0.1,17.3-1.6,35.8,3c17.8,4.4,28.3,10.6,32.3,18.9c2.4,5.1,2.3,11.1-0.4,17.7c7.9,5.6,12.3,12.2,12.9,19.5
	c0.8,8.1-3.3,15.2-6.5,18.9c6.4,8.4,8.6,20.9,0.9,27.7c-2.7,2.3-4.4,7-5.1,13.6c-0.3,3.4-2.7,5.9-5.9,7.7c0.5-0.1,1-0.2,1.6-0.2
	c6.5-0.7,13.1-1.7,19.4-3.3c5.6-1.5,11-3.8,14-7.5c0-17.4,0-29.1,0-58.5c0-35.5,5.6-57.7,15.8-73.9L156,110.3z"/>
</svg>
